<svg xmlns="http://www.w3.org/2000/svg" width="32" height="32"><path d="M27.66 4.34c1.58 1.64 2.13 3.64 2.25 5.89a185 185 0 0 1 0 11.54c-.12 2.3-.67 4.31-2.25 5.9-1.64 1.57-3.64 2.12-5.89 2.24a185 185 0 0 1-11.54 0c-2.3-.12-4.31-.67-5.9-2.25-1.57-1.64-2.12-3.64-2.24-5.89a185 185 0 0 1 0-11.54c.12-2.3.67-4.31 2.25-5.9 1.64-1.57 3.64-2.12 5.89-2.24a185 185 0 0 1 11.54 0c2.3.12 4.31.67 5.9 2.25zM16 23a7 7 0 1 0 0-14 7 7 0 0 0 0 14zm0-2a5 5 0 1 1 0-10 5 5 0 0 1 0 10zm7.5-11a1.5 1.5 0 1 0 0-3 1.5 1.5 0 0 0 0 3z"/></svg>