<?xml version="1.0" encoding="UTF-8"?>
<svg width="220px" height="220px" viewBox="0 0 220 220" version="1.1" xmlns="http://www.w3.org/2000/svg" xmlns:xlink="http://www.w3.org/1999/xlink">
    <!-- Generator: Sketch 58 (84663) - https://sketch.com -->
    <title>m4-safari copy 2</title>
    <desc>Created with Sketch.</desc>
    <defs>
        <path d="M154.708984,29.6542969 C164.484424,29.6542969 172.824184,33.1064108 179.728516,40.0107422 C186.632847,46.9150736 190.084961,55.2548339 190.084961,65.0302734 C190.084961,74.8057129 186.632847,83.1454733 179.728516,90.0498047 C172.824184,96.9541361 164.484424,100.40625 154.708984,100.40625 L136.969727,100.40625 L136.969727,118.145508 L154.708984,118.145508 C164.484424,118.145508 172.824184,121.614711 179.728516,128.553223 C186.632847,135.491734 190.084961,143.848584 190.084961,153.624023 C190.084961,163.399463 186.632847,171.739223 179.728516,178.643555 C172.824184,185.547886 164.484424,189 154.708984,189 C144.933545,189 136.593785,185.547886 129.689453,178.643555 C122.785122,171.739223 119.333008,163.399463 119.333008,153.624023 L119.333008,135.884766 L101.59375,135.884766 L101.59375,153.624023 C101.59375,163.399463 98.1245464,171.739223 91.1860352,178.643555 C84.2475239,185.547886 75.8906739,189 66.1152344,189 C56.3397949,189 48.0000345,185.547886 41.0957031,178.643555 C34.1913717,171.739223 30.7392578,163.399463 30.7392578,153.624023 C30.7392578,143.848584 34.1913717,135.491734 41.0957031,128.553223 C48.0000345,121.614711 56.3397949,118.145508 66.1152344,118.145508 L83.8544922,118.145508 L83.8544922,100.40625 L66.1152344,100.40625 C56.3397949,100.40625 48.0000345,96.9541361 41.0957031,90.0498047 C34.1913717,83.1454733 30.7392578,74.8057129 30.7392578,65.0302734 C30.7392578,55.2548339 34.1913717,46.9150736 41.0957031,40.0107422 C48.0000345,33.1064108 56.3397949,29.6542969 66.1152344,29.6542969 C75.8906739,29.6542969 84.2475239,33.1064108 91.1860352,40.0107422 C98.1245464,46.9150736 101.59375,55.2548339 101.59375,65.0302734 L101.59375,82.7695312 L119.333008,82.7695312 L119.333008,65.0302734 C119.333008,55.2548339 122.785122,46.9150736 129.689453,40.0107422 C136.593785,33.1064108 144.933545,29.6542969 154.708984,29.6542969 Z M154.708984,135.884766 L136.969727,135.884766 L136.969727,153.624023 C136.969727,158.477563 138.712873,162.630354 142.199219,166.08252 C145.685564,169.534685 149.855444,171.260742 154.708984,171.260742 C159.630884,171.260742 163.817854,169.534685 167.27002,166.08252 C170.722185,162.630354 172.448242,158.443384 172.448242,153.521484 C172.448242,148.667944 170.705096,144.515154 167.21875,141.062988 C163.732404,137.610823 159.562524,135.884766 154.708984,135.884766 Z M83.8544922,135.884766 L66.1152344,135.884766 C61.2616945,135.884766 57.108904,137.610823 53.6567383,141.062988 C50.2045726,144.515154 48.4785156,148.702124 48.4785156,153.624023 C48.4785156,158.477563 50.2045726,162.630354 53.6567383,166.08252 C57.108904,169.534685 61.2616945,171.260742 66.1152344,171.260742 C71.037134,171.260742 75.2241038,169.534685 78.6762695,166.08252 C82.1284352,162.630354 83.8544922,158.477563 83.8544922,153.624023 L83.8544922,153.624023 L83.8544922,135.884766 Z M119.333008,100.40625 L101.59375,100.40625 L101.59375,118.145508 L119.333008,118.145508 L119.333008,100.40625 Z M66.1152344,47.2910156 C61.2616945,47.2910156 57.108904,49.0341623 53.6567383,52.5205078 C50.2045726,56.0068534 48.4785156,60.1767335 48.4785156,65.0302734 C48.4785156,69.952173 50.2045726,74.1391429 53.6567383,77.5913086 C57.108904,81.0434743 61.2616945,82.7695312 66.1152344,82.7695312 L83.8544922,82.7695312 L83.8544922,65.0302734 C83.8544922,60.1767335 82.1284352,56.0068534 78.6762695,52.5205078 C75.2241038,49.0341623 71.037134,47.2910156 66.1152344,47.2910156 Z M154.708984,47.2910156 C149.787085,47.2910156 145.600115,49.0341623 142.147949,52.5205078 C138.695784,56.0068534 136.969727,60.1767335 136.969727,65.0302734 L136.969727,82.7695312 L154.708984,82.7695312 C159.630884,82.7695312 163.817854,81.0263846 167.27002,77.5400391 C170.722185,74.0536935 172.448242,69.8838133 172.448242,65.0302734 C172.448242,60.1767335 170.705096,56.0068534 167.21875,52.5205078 C163.732404,49.0341623 159.562524,47.2910156 154.708984,47.2910156 Z" id="path-1"></path>
        <filter x="-22.6%" y="-22.6%" width="145.2%" height="145.2%" filterUnits="objectBoundingBox" id="filter-2">
            <feGaussianBlur stdDeviation="2" in="SourceGraphic"></feGaussianBlur>
        </filter>
        <filter x="-32.0%" y="-32.0%" width="164.0%" height="164.0%" filterUnits="objectBoundingBox" id="filter-3">
            <feMorphology radius="5" operator="dilate" in="SourceAlpha" result="shadowSpreadOuter1"></feMorphology>
            <feOffset dx="0" dy="0" in="shadowSpreadOuter1" result="shadowOffsetOuter1"></feOffset>
            <feGaussianBlur stdDeviation="10" in="shadowOffsetOuter1" result="shadowBlurOuter1"></feGaussianBlur>
            <feComposite in="shadowBlurOuter1" in2="SourceAlpha" operator="out" result="shadowBlurOuter1"></feComposite>
            <feColorMatrix values="0 0 0 0 0   0 0 0 0 0   0 0 0 0 1  0 0 0 1 0" type="matrix" in="shadowBlurOuter1" result="shadowMatrixOuter1"></feColorMatrix>
            <feMorphology radius="1" operator="dilate" in="SourceAlpha" result="shadowSpreadOuter2"></feMorphology>
            <feOffset dx="0" dy="0" in="shadowSpreadOuter2" result="shadowOffsetOuter2"></feOffset>
            <feGaussianBlur stdDeviation="5" in="shadowOffsetOuter2" result="shadowBlurOuter2"></feGaussianBlur>
            <feComposite in="shadowBlurOuter2" in2="SourceAlpha" operator="out" result="shadowBlurOuter2"></feComposite>
            <feColorMatrix values="0 0 0 0 0   0 0 0 0 0.483333333   0 0 0 0 1  0 0 0 1 0" type="matrix" in="shadowBlurOuter2" result="shadowMatrixOuter2"></feColorMatrix>
            <feMerge>
                <feMergeNode in="shadowMatrixOuter1"></feMergeNode>
                <feMergeNode in="shadowMatrixOuter2"></feMergeNode>
            </feMerge>
        </filter>
    </defs>
    <g id="m4-safari-copy-2" stroke="none" stroke-width="1" fill="none" fill-rule="evenodd">
        <g id="glo" style="mix-blend-mode: normal;" filter="url(#filter-2)">
            <use fill="black" fill-opacity="1" filter="url(#filter-3)" xlink:href="#path-1"></use>
            <path stroke="#0099FF" stroke-width="4" d="M154.708984,31.6542969 C145.463807,31.6542969 137.632804,34.8958184 131.103667,41.4249557 C124.574529,47.9540931 121.333008,55.7850956 121.333008,65.0302734 L121.333008,84.7695312 L99.59375,84.7695312 L99.59375,65.0302734 C99.59375,55.7871766 96.3367585,47.9575617 89.7753178,41.4284433 C83.2114521,34.896912 75.3617552,31.6542969 66.1152344,31.6542969 C56.8700565,31.6542969 49.039054,34.8958184 42.5099167,41.4249557 C35.9807793,47.9540931 32.7392578,55.7850956 32.7392578,65.0302734 C32.7392578,74.2754513 35.9807793,82.1064538 42.5099167,88.6355911 C49.039054,95.1647285 56.8700565,98.40625 66.1152344,98.40625 L85.8544922,98.40625 L85.8544922,120.145508 L66.1152344,120.145508 C56.8721376,120.145508 49.0425226,123.402499 42.5134043,129.96394 C35.9818729,136.527806 32.7392578,144.377503 32.7392578,153.624023 C32.7392578,162.869201 35.9807793,170.700204 42.5099167,177.229341 C49.039054,183.758478 56.8700565,187 66.1152344,187 C75.3617552,187 83.2114521,183.757385 89.7753178,177.225854 C96.3367585,170.696735 99.59375,162.86712 99.59375,153.624023 L99.59375,133.884766 L121.333008,133.884766 L121.333008,153.624023 C121.333008,162.869201 124.574529,170.700204 131.103667,177.229341 C137.632804,183.758478 145.463807,187 154.708984,187 C163.954162,187 171.785165,183.758478 178.314302,177.229341 C184.843439,170.700204 188.084961,162.869201 188.084961,153.624023 C188.084961,144.377503 184.842346,136.527806 178.310814,129.96394 C171.781696,123.402499 163.952081,120.145508 154.708984,120.145508 L134.969727,120.145508 L134.969727,98.40625 L154.708984,98.40625 C163.954162,98.40625 171.785165,95.1647285 178.314302,88.6355911 C184.843439,82.1064538 188.084961,74.2754513 188.084961,65.0302734 C188.084961,55.7850956 184.843439,47.9540931 178.314302,41.4249557 C171.785165,34.8958184 163.954162,31.6542969 154.708984,31.6542969 Z M154.708984,133.884766 C160.091152,133.884766 164.766274,135.81996 168.62598,139.641825 C172.49052,143.468478 174.448242,148.132463 174.448242,153.521484 C174.448242,158.972612 172.51233,163.668636 168.684233,167.496733 C164.856136,171.32483 160.160112,173.260742 154.708984,173.260742 C149.326817,173.260742 144.651695,171.325548 140.791989,167.503682 C136.927449,163.67703 134.969727,159.013044 134.969727,153.624023 L134.969727,133.884766 L154.708984,133.884766 Z M66.1152344,133.884766 L85.8544922,133.884766 L85.8544922,153.624023 C85.8544922,159.008873 83.9171052,163.670111 80.0904831,167.496733 C76.2623858,171.32483 71.5663622,173.260742 66.1152344,173.260742 C60.7303848,173.260742 56.0691469,171.323355 52.2425247,167.496733 C48.4159026,163.670111 46.4785156,159.008873 46.4785156,153.624023 C46.4785156,148.172896 48.4144274,143.476872 52.2425247,139.648775 C56.0691469,135.822153 60.7303848,133.884766 66.1152344,133.884766 Z M99.59375,98.40625 L121.333008,98.40625 L121.333008,120.145508 L99.59375,120.145508 L99.59375,98.40625 Z M66.1152344,45.2910156 C71.5705067,45.2910156 76.2693081,47.2472513 80.0974324,51.1132779 C83.9192982,54.9729839 85.8544922,59.648106 85.8544922,65.0302734 L85.8544922,84.7695312 L66.1152344,84.7695312 C60.7303848,84.7695312 56.0691469,82.8321443 52.2425247,79.0055222 C48.4144274,75.1774248 46.4785156,70.4814013 46.4785156,65.0302734 C46.4785156,59.648106 48.4137096,54.9729839 52.2355754,51.1132779 C56.0622276,47.248738 60.7262134,45.2910156 66.1152344,45.2910156 Z M154.708984,45.2910156 C160.095318,45.2910156 164.773188,47.2465188 168.632964,51.1062943 C172.492739,54.9660697 174.448242,59.6439401 174.448242,65.0302734 C174.448242,70.4124408 172.513048,75.0875629 168.691182,78.947269 C164.863058,82.8132956 160.164257,84.7695312 154.708984,84.7695312 L134.969727,84.7695312 L134.969727,65.0302734 C134.969727,59.648106 136.904921,54.9729839 140.726786,51.1132779 C144.554911,47.2472513 149.253712,45.2910156 154.708984,45.2910156 Z" stroke-linejoin="square" fill="#A1E0FF" fill-rule="evenodd"></path>
        </g>
        <g id="Group" transform="translate(47.739258, 135.654297)"></g>
    </g>
</svg>