<?xml version="1.0" encoding="UTF-8"?>
<svg width="220px" height="220px" viewBox="0 0 220 220" version="1.1" xmlns="http://www.w3.org/2000/svg" xmlns:xlink="http://www.w3.org/1999/xlink">
    <!-- Generator: Sketch 58 (84663) - https://sketch.com -->
    <title>m4-safari copy 3</title>
    <desc>Created with Sketch.</desc>
    <g id="m4-safari-copy-3" stroke="none" stroke-width="1" fill="none" fill-rule="evenodd">
        <path d="M81.7623838,8.5 C57.2908954,8.5 47.1990086,10.4488333 36.7663518,16.0282792 C27.8066987,20.8199541 20.8199541,27.8066987 16.0282792,36.7663518 C10.4488333,47.1990086 8.5,57.2908954 8.5,81.7623838 L8.5,138.237616 C8.5,162.709105 10.4488333,172.800991 16.0282792,183.233648 C20.8199541,192.193301 27.8066987,199.180046 36.7663518,203.971721 C47.1990086,209.551167 57.2908954,211.5 81.7623838,211.5 L138.237616,211.5 C162.709105,211.5 172.800991,209.551167 183.233648,203.971721 C192.193301,199.180046 199.180046,192.193301 203.971721,183.233648 C209.551167,172.800991 211.5,162.709105 211.5,138.237616 L211.5,81.7623838 C211.5,57.2908954 209.551167,47.1990086 203.971721,36.7663518 C199.180046,27.8066987 192.193301,20.8199541 183.233648,16.0282792 C172.800991,10.4488333 162.709105,8.5 138.237616,8.5 L81.7623838,8.5 Z" id="Rectangle" stroke="#000000" stroke-width="15"></path>
        <path d="M154.708984,29.6542969 C164.484424,29.6542969 172.824184,33.1064108 179.728516,40.0107422 C186.632847,46.9150736 190.084961,55.2548339 190.084961,65.0302734 C190.084961,74.8057129 186.632847,83.1454733 179.728516,90.0498047 C172.824184,96.9541361 164.484424,100.40625 154.708984,100.40625 L136.969727,100.40625 L136.969727,118.145508 L154.708984,118.145508 C164.484424,118.145508 172.824184,121.614711 179.728516,128.553223 C186.632847,135.491734 190.084961,143.848584 190.084961,153.624023 C190.084961,163.399463 186.632847,171.739223 179.728516,178.643555 C172.824184,185.547886 164.484424,189 154.708984,189 C144.933545,189 136.593785,185.547886 129.689453,178.643555 C122.785122,171.739223 119.333008,163.399463 119.333008,153.624023 L119.333008,135.884766 L101.59375,135.884766 L101.59375,153.624023 C101.59375,163.399463 98.1245464,171.739223 91.1860352,178.643555 C84.2475239,185.547886 75.8906739,189 66.1152344,189 C56.3397949,189 48.0000345,185.547886 41.0957031,178.643555 C34.1913717,171.739223 30.7392578,163.399463 30.7392578,153.624023 C30.7392578,143.848584 34.1913717,135.491734 41.0957031,128.553223 C48.0000345,121.614711 56.3397949,118.145508 66.1152344,118.145508 L83.8544922,118.145508 L83.8544922,100.40625 L66.1152344,100.40625 C56.3397949,100.40625 48.0000345,96.9541361 41.0957031,90.0498047 C34.1913717,83.1454733 30.7392578,74.8057129 30.7392578,65.0302734 C30.7392578,55.2548339 34.1913717,46.9150736 41.0957031,40.0107422 C48.0000345,33.1064108 56.3397949,29.6542969 66.1152344,29.6542969 C75.8906739,29.6542969 84.2475239,33.1064108 91.1860352,40.0107422 C98.1245464,46.9150736 101.59375,55.2548339 101.59375,65.0302734 L101.59375,82.7695312 L119.333008,82.7695312 L119.333008,65.0302734 C119.333008,55.2548339 122.785122,46.9150736 129.689453,40.0107422 C136.593785,33.1064108 144.933545,29.6542969 154.708984,29.6542969 Z M154.708984,135.884766 L136.969727,135.884766 L136.969727,153.624023 C136.969727,158.477563 138.712873,162.630354 142.199219,166.08252 C145.685564,169.534685 149.855444,171.260742 154.708984,171.260742 C159.630884,171.260742 163.817854,169.534685 167.27002,166.08252 C170.722185,162.630354 172.448242,158.443384 172.448242,153.521484 C172.448242,148.667944 170.705096,144.515154 167.21875,141.062988 C163.732404,137.610823 159.562524,135.884766 154.708984,135.884766 Z M83.8544922,135.884766 L66.1152344,135.884766 C61.2616945,135.884766 57.108904,137.610823 53.6567383,141.062988 C50.2045726,144.515154 48.4785156,148.702124 48.4785156,153.624023 C48.4785156,158.477563 50.2045726,162.630354 53.6567383,166.08252 C57.108904,169.534685 61.2616945,171.260742 66.1152344,171.260742 C71.037134,171.260742 75.2241038,169.534685 78.6762695,166.08252 C82.1284352,162.630354 83.8544922,158.477563 83.8544922,153.624023 L83.8544922,153.624023 L83.8544922,135.884766 Z M119.333008,100.40625 L101.59375,100.40625 L101.59375,118.145508 L119.333008,118.145508 L119.333008,100.40625 Z M66.1152344,47.2910156 C61.2616945,47.2910156 57.108904,49.0341623 53.6567383,52.5205078 C50.2045726,56.0068534 48.4785156,60.1767335 48.4785156,65.0302734 C48.4785156,69.952173 50.2045726,74.1391429 53.6567383,77.5913086 C57.108904,81.0434743 61.2616945,82.7695312 66.1152344,82.7695312 L83.8544922,82.7695312 L83.8544922,65.0302734 C83.8544922,60.1767335 82.1284352,56.0068534 78.6762695,52.5205078 C75.2241038,49.0341623 71.037134,47.2910156 66.1152344,47.2910156 Z M154.708984,47.2910156 C149.787085,47.2910156 145.600115,49.0341623 142.147949,52.5205078 C138.695784,56.0068534 136.969727,60.1767335 136.969727,65.0302734 L136.969727,82.7695312 L154.708984,82.7695312 C159.630884,82.7695312 163.817854,81.0263846 167.27002,77.5400391 C170.722185,74.0536935 172.448242,69.8838133 172.448242,65.0302734 C172.448242,60.1767335 170.705096,56.0068534 167.21875,52.5205078 C163.732404,49.0341623 159.562524,47.2910156 154.708984,47.2910156 Z" id="glo" fill="#000000" style="mix-blend-mode: normal;"></path>
    </g>
</svg>