<?xml version="1.0" encoding="UTF-8"?>
<svg width="220px" height="220px" viewBox="0 0 220 220" version="1.1" xmlns="http://www.w3.org/2000/svg" xmlns:xlink="http://www.w3.org/1999/xlink">
    <!-- Generator: Sketch 55.2 (78181) - https://sketchapp.com -->
    <title>m4-safari</title>
    <desc>Created with Sketch.</desc>
    <g id="m4-safari" stroke="none" stroke-width="1" fill="none" fill-rule="evenodd">
        <path d="M90.7623838,17 C66.2154131,17 56.0455474,18.9638916 45.5305524,24.5873726 C36.483765,29.4256474 29.4256474,36.483765 24.5873726,45.5305524 C18.9638916,56.0455474 17,66.2154131 17,90.7623838 L17,129.237616 C17,153.784587 18.9638916,163.954453 24.5873726,174.469448 C29.4256474,183.516235 36.483765,190.574353 45.5305524,195.412627 C56.0455474,201.036108 66.2154131,203 90.7623838,203 L129.237616,203 C153.784587,203 163.954453,201.036108 174.469448,195.412627 C183.516235,190.574353 190.574353,183.516235 195.412627,174.469448 C201.036108,163.954453 203,153.784587 203,129.237616 L203,90.7623838 C203,66.2154131 201.036108,56.0455474 195.412627,45.5305524 C190.574353,36.483765 183.516235,29.4256474 174.469448,24.5873726 C163.954453,18.9638916 153.784587,17 129.237616,17 L90.7623838,17 Z" id="Rectangle" stroke="#000000" stroke-width="14"></path>
        <text id="⌘" font-family="LucidaGrande-Bold, Lucida Grande" font-size="170" font-weight="bold" fill="#000000">
            <tspan x="31" y="174">⌘</tspan>
        </text>
    </g>
</svg>