<?xml version="1.0" encoding="UTF-8"?>
<svg width="220px" height="220px" viewBox="0 0 220 220" version="1.1" xmlns="http://www.w3.org/2000/svg" xmlns:xlink="http://www.w3.org/1999/xlink">
    <!-- Generator: Sketch 58 (84663) - https://sketch.com -->
    <title>m4-safari copy 2</title>
    <desc>Created with Sketch.</desc>
    <g id="m4-safari-copy-2" stroke="none" stroke-width="1" fill="none" fill-rule="evenodd">
        <path d="M81.7623838,8 C57.2154131,8 47.0455474,9.96389165 36.5305524,15.5873726 C27.483765,20.4256474 20.4256474,27.483765 15.5873726,36.5305524 C9.96389165,47.0455474 8,57.2154131 8,81.7623838 L8,138.237616 C8,162.784587 9.96389165,172.954453 15.5873726,183.469448 C20.4256474,192.516235 27.483765,199.574353 36.5305524,204.412627 C47.0455474,210.036108 57.2154131,212 81.7623838,212 L138.237616,212 C162.784587,212 172.954453,210.036108 183.469448,204.412627 C192.516235,199.574353 199.574353,192.516235 204.412627,183.469448 C210.036108,172.954453 212,162.784587 212,138.237616 L212,81.7623838 C212,57.2154131 210.036108,47.0455474 204.412627,36.5305524 C199.574353,27.483765 192.516235,20.4256474 183.469448,15.5873726 C172.954453,9.96389165 162.784587,8 138.237616,8 L81.7623838,8 Z" id="Rectangle" stroke="#000000" stroke-width="14" fill="#FFFFFF"></path>
        <g id="Group" transform="translate(30.739258, 29.654297)" fill-rule="nonzero">
            <path d="M53.1152344,70.7519531 L35.3759766,70.7519531 C25.6005371,70.7519531 17.2607767,67.2998392 10.3564453,60.3955078 C3.45211392,53.4911764 0,45.1514161 0,35.3759766 C0,25.6005371 3.45211392,17.2607767 10.3564453,10.3564453 C17.2607767,3.45211392 25.6005371,0 35.3759766,0 C45.1514161,0 53.5082661,3.45211392 60.4467773,10.3564453 C67.3852886,17.2607767 70.8544922,25.6005371 70.8544922,35.3759766 L70.8544922,53.1152344 L88.59375,53.1152344 L88.59375,35.3759766 C88.59375,25.6005371 92.0458639,17.2607767 98.9501953,10.3564453 C105.854527,3.45211392 114.194287,0 123.969727,0 C133.745166,0 142.084926,3.45211392 148.989258,10.3564453 C155.893589,17.2607767 159.345703,25.6005371 159.345703,35.3759766 C159.345703,45.1514161 155.893589,53.4911764 148.989258,60.3955078 C142.084926,67.2998392 133.745166,70.7519531 123.969727,70.7519531 L106.230469,70.7519531 L106.230469,88.4912109 L123.969727,88.4912109 C133.745166,88.4912109 142.084926,91.9604145 148.989258,98.8989258 C155.893589,105.837437 159.345703,114.194287 159.345703,123.969727 C159.345703,133.745166 155.893589,142.084926 148.989258,148.989258 C142.084926,155.893589 133.745166,159.345703 123.969727,159.345703 C114.194287,159.345703 105.854527,155.893589 98.9501953,148.989258 C92.0458639,142.084926 88.59375,133.745166 88.59375,123.969727 L88.59375,106.230469 L70.8544922,106.230469 L70.8544922,123.969727 C70.8544922,133.745166 67.3852886,142.084926 60.4467773,148.989258 C53.5082661,155.893589 45.1514161,159.345703 35.3759766,159.345703 C25.6005371,159.345703 17.2607767,155.893589 10.3564453,148.989258 C3.45211392,142.084926 0,133.745166 0,123.969727 C0,114.194287 3.45211392,105.837437 10.3564453,98.8989258 C17.2607767,91.9604145 25.6005371,88.4912109 35.3759766,88.4912109 L53.1152344,88.4912109 L53.1152344,70.7519531 Z" id="Path" fill="#000000"></path>
            <polygon id="Path" fill="#FFFFFF" points="70.8544922 88.4912109 88.59375 88.4912109 88.59375 70.7519531 70.8544922 70.7519531"></polygon>
            <path d="M53.1152344,53.1152344 L53.1152344,35.3759766 C53.1152344,30.5224367 51.3891774,26.3525565 47.9370117,22.8662109 C44.484846,19.3798654 40.2978762,17.6367188 35.3759766,17.6367188 C30.5224367,17.6367188 26.3696462,19.3798654 22.9174805,22.8662109 C19.4653148,26.3525565 17.7392578,30.5224367 17.7392578,35.3759766 C17.7392578,40.2978762 19.4653148,44.484846 22.9174805,47.9370117 C26.3696462,51.3891774 30.5224367,53.1152344 35.3759766,53.1152344 L53.1152344,53.1152344 Z" id="Path" fill="#FFFFFF"></path>
            <path d="M106.230469,53.1152344 L123.969727,53.1152344 C128.891626,53.1152344 133.078596,51.3720877 136.530762,47.8857422 C139.982927,44.3993966 141.708984,40.2295165 141.708984,35.3759766 C141.708984,30.5224367 139.965838,26.3525565 136.479492,22.8662109 C132.993147,19.3798654 128.823266,17.6367188 123.969727,17.6367188 C119.047827,17.6367188 114.860857,19.3798654 111.408691,22.8662109 C107.956526,26.3525565 106.230469,30.5224367 106.230469,35.3759766 L106.230469,53.1152344 Z" id="Path" fill="#FFFFFF"></path>
            <path d="M106.230469,106.230469 L106.230469,123.969727 C106.230469,128.823266 107.973615,132.976057 111.459961,136.428223 C114.946306,139.880388 119.116187,141.606445 123.969727,141.606445 C128.891626,141.606445 133.078596,139.880388 136.530762,136.428223 C139.982927,132.976057 141.708984,128.789087 141.708984,123.867188 C141.708984,119.013648 139.965838,114.860857 136.479492,111.408691 C132.993147,107.956526 128.823266,106.230469 123.969727,106.230469 L106.230469,106.230469 Z" id="Path" fill="#FFFFFF"></path>
            <path d="M53.1152344,106.230469 L53.1152344,123.969727 C53.1152344,128.823266 51.3891774,132.976057 47.9370117,136.428223 C44.484846,139.880388 40.2978762,141.606445 35.3759766,141.606445 C30.5224367,141.606445 26.3696462,139.880388 22.9174805,136.428223 C19.4653148,132.976057 17.7392578,128.823266 17.7392578,123.969727 C17.7392578,119.047827 19.4653148,114.860857 22.9174805,111.408691 C26.3696462,107.956526 30.5224367,106.230469 35.3759766,106.230469 L53.1152344,106.230469 Z" id="Path" fill="#FFFFFF"></path>
        </g>
    </g>
</svg>